<?xml version="1.0" encoding="utf-8"?>
<!-- Generator: Adobe Illustrator 22.0.0, SVG Export Plug-In . SVG Version: 6.00 Build 0)  -->
<svg version="1.1" id="Capa_1" xmlns="http://www.w3.org/2000/svg" xmlns:xlink="http://www.w3.org/1999/xlink" x="0px" y="0px"
	 viewBox="0 0 121 121" style="enable-background:new 0 0 121 121;" xml:space="preserve">
<style type="text/css">
	.st0{display:none;fill:#1F1F1F;}
	.st1{clip-path:url(#SVGID_2_);fill:#FFFFFF;}
	.st2{clip-path:url(#SVGID_2_);fill:none;stroke:#000000;stroke-miterlimit:10;}
	.st3{clip-path:url(#SVGID_2_);}
	.st4{clip-path:url(#SVGID_2_);fill:#B61117;}
</style>
<rect x="-25.1" y="-21" class="st0" width="169.6" height="169.6"/>
<g>
	<defs>
		<rect id="SVGID_1_" x="-35" y="-30.2" width="186.2" height="186.2"/>
	</defs>
	<clipPath id="SVGID_2_">
		<use xlink:href="#SVGID_1_"  style="overflow:visible;"/>
	</clipPath>
	<path class="st1" d="M96.7,82.7c0.3,0.1,0.5,0.3,0.5,0.7c0,0,0.1,0.1,0.1,0.1c0.1,0.1,0.1,0.3,0.1,0.4c-0.6,1.1-1.8,1.5-2.9,1.7
		c-1.3,0.3-2.6,0.5-4,0.7C87.8,86.7,85,87,82.3,87c-1.7,0-3.4,0.1-5.1-0.1c-0.2,0-0.3,0-0.5,0c-0.1,0.7-0.3,1.3-0.5,2
		c0,0.2,0.1,0.4,0.1,0.7c0.1,1.4-0.1,2.7-0.5,3.9c0.6-0.1,1.2-0.2,1.8-0.3c1.2-0.2,2.4-0.4,3.6-0.6c2.4-0.4,4.7-0.8,7.1-1.3
		c1.7-0.3,3.4-0.8,5.2-1.2c1.5-0.6,3-1.1,4.5-1.7c-1.2-1.7-1-4,0.3-6c0.8-1.2,2.4-0.1,1.8,1.1c-0.6,1.2-0.9,2.4-0.2,3.6
		c0.3,0.4,0.6,0.7,1,0.8c0.5-0.2,1-0.3,1.6-0.3c1-0.9,0.3-2.4,0.1-3.6c-0.4-1.7-0.7-3.3-0.9-5.1c-0.5-3.7,0-7.6,0.2-11.4
		c0-1.3,0.1-2.6,0.1-3.9c-0.1,0.2-0.2,0.4-0.3,0.5c-0.1,0.4-0.3,0.7-0.4,1.1c-0.9,2.3-1.9,4.7-2.6,7.1c0,0.4,0,0.8,0,1.2
		c0,1.5,0.1,2.7-0.1,4.1c0.2,0.3,0.3,0.6,0.3,1c0,0.6-0.2,1.1-0.8,1.3c-1.5,0.5-2.5,1.5-3,2.8h0C95.4,82.6,96,82.4,96.7,82.7"/>
	<path class="st1" d="M45.5,98.2c-0.4-1.4-0.7-2.8-1-4.1c-0.1-0.6-0.2-1.2-0.3-1.7c-1.5,1.4-3,2.8-4.4,4.2c0,0,0,0.1,0.1,0.1
		c0.8,1.7,1.3,3.5,1.8,5.3c0.3,0.9,0.5,1.8,0.8,2.7c0.1,0.4,0.3,0.8,0.4,1.2c2.2,0,4.4-0.3,6.5-0.6c-0.1-0.1-0.2-0.1-0.3-0.2
		C47,103.4,46.2,100.6,45.5,98.2"/>
	<path class="st1" d="M50.8,94.1c-0.6-1.5-0.9-3.1-1.1-4.7c-0.1-0.7,0-1.3,0.1-1.9c-1.2,1-2.4,2.1-3.6,3.1c0.3,0.9,0.5,1.8,0.7,2.7
		c0.3,1.2,0.6,2.3,0.9,3.5s0.8,2.3,1.2,3.4c0.4,1,0.8,1.9,1.5,2.6c1,0.9,2.3,1.3,3.7,1.3c2.5-0.6,5-1.4,7.4-2.5
		c-1.6,0-3.3-0.3-4.8-1C54,99.4,52,96.9,50.8,94.1"/>
	<path class="st1" d="M39.2,102.6c-0.4-1.5-0.8-2.9-1-4.4c-1.4,1.5-2.9,3-4.2,4.6c1.7,1.5,3.8,2.3,6,2.7c0-0.1,0-0.2-0.1-0.3
		C39.7,104.4,39.4,103.5,39.2,102.6"/>
	<path class="st1" d="M26.5,39.4c1.2,1.2,2.3,2.2,3.6,3.3c0.3,0.2,0.6,0.6,1,0.7c0.2,0.1,0.5,0,0.8-0.1c-0.3-0.3-0.6-0.6-0.9-0.9
		c-0.5-0.5-1-1-1.4-1.5c-0.9-1-1.8-2.1-2.6-3.3c-0.3-0.5,0.4-1.1,0.9-0.7c0.9,1,1.7,2,2.7,3c0.5,0.5,0.9,1,1.4,1.4
		c0.5,0.4,0.9,0.8,1.4,1.3c0.5-0.2,1-0.4,1.4-0.6c0.3-0.1,0.5-0.2,0.7-0.3c-0.6-0.8-1.2-1.6-1.8-2.4c-0.5-0.6-1-1.3-1.4-1.8
		c-0.4-0.6-1-1.3-1.3-1.9c-0.3-0.5,0.3-0.9,0.7-0.5c0.4,0.4,1,1.1,1.5,1.7c0.5,0.5,1,1.2,1.5,1.8c0.7,0.8,1.4,1.7,2.1,2.6
		c0.6-0.3,1.2-0.6,1.7-0.8c0,0,0,0,0,0c0.1-0.1,0.2-0.1,0.3-0.2c-0.1-0.4-0.2-0.8-0.3-1.2c-0.1-0.2-0.2-0.5-0.3-0.7
		c-0.3-0.9-0.6-1.8-1-2.6c0-0.1-0.1-0.2-0.1-0.3c0-0.1-0.1-0.2-0.1-0.2c-0.5-1.2-1-2.5-1.5-3.7c-3.8,1.8-7.7,3.8-11.5,5.6
		C24.9,37.8,25.7,38.7,26.5,39.4"/>
	<path class="st1" d="M41.8,29c0.2-0.2,0.5-0.5,0.7-0.7c-0.2-0.1-0.2-0.2-0.4-0.3c-0.2-0.1-0.2-0.2-0.4-0.4
		c-0.2-0.2-0.5-0.5-0.7-0.7c-0.2-0.1-0.4-0.4-0.6-0.5c-0.1,0.3-0.3,0.5-0.4,0.8c-0.5,1-0.9,2.2-1.2,3.3c-0.1,0.5-0.2,1-0.2,1.5
		c0.1,0.1,0.1,0.2,0.2,0.3C39.7,31.2,40.7,30.1,41.8,29"/>
	<path class="st1" d="M42.1,25.9c0.2,0.2,0.6,0.5,0.8,0.7c0.2,0.2,0.3,0.2,0.4,0.3c0.1,0.1,0.1,0.1,0.2,0.2c0.1,0.1,0.1,0.2,0.2,0.2
		c0.2-0.2,0.5-0.4,0.7-0.7c0.4-0.4,0.9-0.7,1.3-1c0.3-0.3,0.6-0.4,0.9-0.7c-0.1-0.4-0.3-0.6-0.5-1c-0.2-0.4-0.5-0.9-0.8-1.3
		c-0.3-0.5-0.7-1.1-1-1.6c-0.3,0.2-0.5,0.5-0.8,0.7c-0.8,1.1-1.6,2.2-2.3,3.4c0,0,0.1,0.1,0.1,0.1C41.5,25.4,41.9,25.7,42.1,25.9"/>
	<path class="st1" d="M65.7,95c-5.9-0.6-10.7-5.8-10.1-11.9c0.1-0.8,1.2-0.8,1.3,0c0.4,4.6,3.9,9,8.6,9.3c2.4,0.2,4.7-0.6,6.3-2.3
		c0.1-0.1,0.1-0.1,0.2-0.2c-0.1-2.5-1.9-3.8-3.6-5.4c-0.2-0.1-0.3-0.3-0.3-0.4c-0.1,0.1-0.2,0.1-0.3,0.2c-3.4-1.2-6.7-2.4-10.1-3.6
		c-0.3,1-1.3,1.6-2.2,2.2c-1.2,0.9-2.4,1.8-3.5,2.7c-0.2,0.2-0.4,0.3-0.6,0.5c0.1,0.9,0.3,1.9,0.4,2.8c0.2,1.3,0.5,2.6,1,3.8
		c0.9,2.4,2.5,4.5,4.8,5.6c2.9,1.5,6.6,1,9.4-0.5c0.8-0.4,1.6-1,2.3-1.6c0.6-0.6,1.1-1.3,1.5-2C69.3,94.9,67.5,95.2,65.7,95"/>
	<path class="st1" d="M50.5,78.5c-0.5,0.9-1.4,1.5-2.3,2.2c-1.1,0.9-2.1,1.9-3.1,2.8c-1.9,1.9-3.7,3.9-5.3,6.1
		c-1.6,2.2-3.1,4.5-4.4,6.8c-0.3,0.6-0.6,1.1-0.9,1.7c2.8-3.2,5.8-6.3,9-9.2c2.1-2,4.4-3.8,6.6-5.7c1.1-0.9,2.3-1.8,3.4-2.6
		c0.4-0.3,0.8-0.6,1.2-0.9c-0.9-0.3-1.8-0.7-2.8-1C51.6,78.6,51,78.5,50.5,78.5"/>
	<path class="st1" d="M14,69.6c-0.4-1.4,1.6-2,2.1-0.7c0.1,0,0.1,0.1,0.2,0.1c0.1,0.1,0.2,0.2,0.3,0.3c0.1-0.1,0.1-0.1,0.2-0.2
		c0.1-0.1,0.1-0.1,0.1-0.1c0.1-0.1,0-0.1,0,0c0,0,0.1-0.2,0.2-0.3c0,0,0-0.1,0.1-0.2c0,0,0,0,0,0c0,0,0,0,0,0c0-0.1,0.1-0.2,0.1-0.3
		c0-0.1,0-0.1,0-0.1c0,0.1,0-0.1,0-0.1c0,0,0-0.2,0-0.2c0,0,0,0,0-0.1c0,0,0-0.1,0-0.1c0,0,0-0.1,0-0.2c0,0,0-0.1,0-0.2
		c0,0,0-0.1,0-0.1c0,0,0-0.1,0-0.1c0,0,0-0.1-0.1-0.1c0-0.1,0-0.1-0.1-0.2c-0.5,0.3-1.3-0.2-0.9-0.9c0-0.1,0.1-0.2,0.1-0.2
		c0-0.1,0-0.3,0.1-0.4c0.1-0.1,0.2-0.2,0.3-0.3C20,58.6,23.9,52.3,28,46.1c-0.5-0.5-1-1.1-1.5-1.6c-2.7,4.1-5.3,8.1-8,12.2
		c-1.1,1.7-2.1,3.5-3.2,5.2c-0.9,1.5-1.9,3-2.8,4.5c-0.9,1.4-1.8,2.6-2.5,4c-0.3,0.7-0.4,1.4,0.3,1.9c0.5,0.3,1,0.5,1.6,0.5
		c0.4-0.1,0.9-0.2,1.3-0.4C14,71.7,14.3,70.8,14,69.6"/>
	<path class="st1" d="M38.3,83.7c1.7-0.2,3.1-1,4.6-1.7c0.1-0.1,0.1-0.1,0.2-0.2c1-1.1,2-2.1,3.1-3.1c0.1-0.1,0.1-0.1,0.2-0.2
		c-3.7,0.5-7.2,2.3-9.9,5.2C37.2,83.8,37.7,83.8,38.3,83.7"/>
	<path class="st1" d="M34.1,94.5c-0.3,0.2-0.6,0.3-0.9,0.4c-0.5,0.2-1.1,0.4-1.6,0.5c-0.2,0-0.4,0.1-0.6,0.1
		c-0.1,1.5,0.1,2.9,0.7,4.3c0.5-1.2,1-2.4,1.5-3.5C33.5,95.7,33.8,95.1,34.1,94.5"/>
	<path class="st1" d="M34,92.3c0.5-0.1,1-0.3,1.4-0.5c0,0,0.1,0,0.1,0c0.6-1.1,1.3-2.1,2-3.2c0.8-1.2,1.7-2.3,2.6-3.4
		c-0.5,0.1-1,0.3-1.5,0.3c-1,0.2-2,0.2-3,0.2c-0.2,0-0.5,0-0.7-0.1c-1.5,2.1-2.9,4.7-3.6,7.5c0.4-0.1,0.8-0.2,1.2-0.3
		C33.1,92.7,33.5,92.5,34,92.3"/>
	<path class="st1" d="M40.8,75.4c-0.1,0-0.2-0.1-0.3-0.1c-0.5-0.2-0.9-0.3-1.4-0.5c-4.3-0.8-8.5-1.8-12.7-3c-1-0.1-2-0.3-3.1-0.4
		c-1.9-0.2-3.8-0.3-5.6-0.7c-0.1,0.2-0.3,0.4-0.4,0.6c-0.5,0.8-1.2,1.7-2.1,2.5c1.3,0.1,2.6,0.4,3.9,0.5c2,0.2,4,0.4,6,0.6
		c3.8,0.4,7.4,1.3,10.9,2.9c0.5,0.1,0.9,0.3,1.3,0.6c1.6-1.1,3.5-2,5.4-2.6L42,75.7C41.6,75.6,41.2,75.5,40.8,75.4"/>
	<path class="st1" d="M74.5,96.1c-0.1,0.1-0.1,0.2-0.2,0.3c0.2,0,0.3-0.1,0.5-0.1C74.7,96.3,74.6,96.2,74.5,96.1"/>
	<path class="st1" d="M99.7,65.1c-0.1,0.6-0.2,1.3-0.4,1.9c-0.2,0.8-0.3,1.5-0.5,2.3c0.5-1.4,0.9-2.9,1.4-4.3
		C100.1,65.1,99.9,65.1,99.7,65.1"/>
	<path class="st1" d="M103.7,71.2c0-0.7,0.1-1.4,0.1-2.1c0.1-0.7,0.2-1.4,0.3-2.1c0.3-2.2,0.4-4.4,0.5-6.7c0-0.5,0.1-1,0.1-1.6
		c-0.8,0.4-1.6,0.8-2.5,1.1c-1.8,0.7-3.5,1.4-5.4,1.8c0.4,0.3,0.7,0.8,0.7,1.4c0,3.4,0.4,6.8,0.1,10.2c-0.3,2.9-0.9,5.8-2.6,8.2
		c-1.8,2.4-4.3,3.9-7.2,4.6c-4.9,1.1-10.9,0.5-15.1-2.6c-2.3,0.4-4.7-0.1-7.1-0.9c-3.1-1.1-6.1-2.6-9.3-3.5
		c-4.4-1.2-8.8-2.7-12.5-5.4c-0.5-0.4-0.9-0.8-1.2-1.3c-1.7-0.2-3.5-0.5-5.2-0.8c-2.5-0.8-5.1-1.4-7.8-1.8c-1.6-0.3-3.3-0.5-4.9-0.6
		c-1.8-0.4-3.5-0.8-5.3-1.2c-0.5-0.1-0.8,0.2-0.9,0.5c0-0.1,0-0.1,0-0.2c0-0.3-0.5-3.2-0.8-2.8c3.7-6,7.5-12.1,11.3-18.2
		c0.4,0.2,0.8,0,1-0.3c0.5,0.2,1,0.3,1.5,0.3c0.7-0.1,1.3-0.5,2-0.9c0.7-0.4,1.5-0.8,2.2-1.3c1.4-0.8,2.9-1.7,4.3-2.6
		c0.7-0.4,1.4-0.8,1.6-1.7c0.2-0.8-0.3-1.6-0.5-2.3c-0.5-1.2-1-2.5-1.5-3.7c2.2-2.6,4.5-5,7.1-7.2c0.6-0.5,1.4-0.9,1.8-1.8
		c0.4-0.8,0-1.7-0.4-2.5c-0.9-1.7-1.9-3.3-3.1-4.8c-0.4-0.5-1.1-0.4-1.6,0c-1.9,1.6-3.5,3.4-4.8,5.4c-0.7,1-1.2,2-1.7,3.1
		c-0.2,0.5-0.4,1-0.6,1.4c-0.3,0-0.6,0-0.9,0.1c-4.6,2.3-9.3,4.5-13.9,6.8C20.8,36,21,37,21.7,37.4c0,0.2,0,0.4,0.1,0.7
		c1,1.6,2.1,3.2,3.2,4.8c-4.5,6.6-8.9,13.3-13.3,20.1c-1.1,1.6-2.1,3.3-3.1,5c-0.5,0.8-0.9,1.7-1,2.7c-0.1,0.3-0.1,0.6-0.1,0.9
		c0.1,2.2,2.5,3.6,4.6,3.7c0.4,0,0.8-0.1,1.1-0.2c0.2,0.1,0.5,0.1,0.7,0.2c0.1,0.3,0.2,0.5,0.5,0.6c3.4,1.4,7.1,2,10.6,2.8
		c1.8,0.4,3.5,0.8,5.3,1.2c0.8,0.2,1.7,0.4,2.5,0.5c0.4,0.1,0.8,0.2,1.3,0.3c0.1,0,0.3,0.1,0.4,0.1c-0.2,0.2-0.4,0.4-0.6,0.6
		c-4.9,5.2-9.1,14.1-5.4,21.1c3.9,7.3,12.9,8.3,20.2,7.2c7.7-1.2,16.1-3.5,22-8.9c0.4-0.4,0.9-0.8,1.3-1.3c0.9,0,1.9-0.3,2.8-0.5
		c1.2-0.3,2.3-0.6,3.5-1c2.4-0.7,4.8-1.4,7.1-2.2c2.8-1,5.6-2.1,8.4-3.2c0.6-0.1,1.1-0.3,1.7-0.4c1.2-0.3,2.6-0.7,3.8-1.1
		c0.5-0.2,1.2-0.3,1.7-0.5c1,0.1,1.9-0.2,2.7-0.8c1.5-1.1,1.7-2.5,1.3-4.3C104.3,80.5,103.4,76.2,103.7,71.2"/>
	<path class="st2" d="M103.7,71.2c0-0.7,0.1-1.4,0.1-2.1c0.1-0.7,0.2-1.4,0.3-2.1c0.3-2.2,0.4-4.4,0.5-6.7c0-0.5,0.1-1,0.1-1.6
		c-0.8,0.4-1.6,0.8-2.5,1.1c-1.8,0.7-3.5,1.4-5.4,1.8c0.4,0.3,0.7,0.8,0.7,1.4c0,3.4,0.4,6.8,0.1,10.2c-0.3,2.9-0.9,5.8-2.6,8.2
		c-1.8,2.4-4.3,3.9-7.2,4.6c-4.9,1.1-10.9,0.5-15.1-2.6c-2.3,0.4-4.7-0.1-7.1-0.9c-3.1-1.1-6.1-2.6-9.3-3.5
		c-4.4-1.2-8.8-2.7-12.5-5.4c-0.5-0.4-0.9-0.8-1.2-1.3c-1.7-0.2-3.5-0.5-5.2-0.8c-2.5-0.8-5.1-1.4-7.8-1.8c-1.6-0.3-3.3-0.5-4.9-0.6
		c-1.8-0.4-3.5-0.8-5.3-1.2c-0.5-0.1-0.8,0.2-0.9,0.5c0-0.1,0-0.1,0-0.2c0-0.3-0.5-3.2-0.8-2.8c3.7-6,7.5-12.1,11.3-18.2
		c0.4,0.2,0.8,0,1-0.3c0.5,0.2,1,0.3,1.5,0.3c0.7-0.1,1.3-0.5,2-0.9c0.7-0.4,1.5-0.8,2.2-1.3c1.4-0.8,2.9-1.7,4.3-2.6
		c0.7-0.4,1.4-0.8,1.6-1.7c0.2-0.8-0.3-1.6-0.5-2.3c-0.5-1.2-1-2.5-1.5-3.7c2.2-2.6,4.5-5,7.1-7.2c0.6-0.5,1.4-0.9,1.8-1.8
		c0.4-0.8,0-1.7-0.4-2.5c-0.9-1.7-1.9-3.3-3.1-4.8c-0.4-0.5-1.1-0.4-1.6,0c-1.9,1.6-3.5,3.4-4.8,5.4c-0.7,1-1.2,2-1.7,3.1
		c-0.2,0.5-0.4,1-0.6,1.4c-0.3,0-0.6,0-0.9,0.1c-4.6,2.3-9.3,4.5-13.9,6.8C20.8,36,21,37,21.7,37.4c0,0.2,0,0.4,0.1,0.7
		c1,1.6,2.1,3.2,3.2,4.8c-4.5,6.6-8.9,13.3-13.3,20.1c-1.1,1.6-2.1,3.3-3.1,5c-0.5,0.8-0.9,1.7-1,2.7c-0.1,0.3-0.1,0.6-0.1,0.9
		c0.1,2.2,2.5,3.6,4.6,3.7c0.4,0,0.8-0.1,1.1-0.2c0.2,0.1,0.5,0.1,0.7,0.2c0.1,0.3,0.2,0.5,0.5,0.6c3.4,1.4,7.1,2,10.6,2.8
		c1.8,0.4,3.5,0.8,5.3,1.2c0.8,0.2,1.7,0.4,2.5,0.5c0.4,0.1,0.8,0.2,1.3,0.3c0.1,0,0.3,0.1,0.4,0.1c-0.2,0.2-0.4,0.4-0.6,0.6
		c-4.9,5.2-9.1,14.1-5.4,21.1c3.9,7.3,12.9,8.3,20.2,7.2c7.7-1.2,16.1-3.5,22-8.9c0.4-0.4,0.9-0.8,1.3-1.3c0.9,0,1.9-0.3,2.8-0.5
		c1.2-0.3,2.3-0.6,3.5-1c2.4-0.7,4.8-1.4,7.1-2.2c2.8-1,5.6-2.1,8.4-3.2c0.6-0.1,1.1-0.3,1.7-0.4c1.2-0.3,2.6-0.7,3.8-1.1
		c0.5-0.2,1.2-0.3,1.7-0.5c1,0.1,1.9-0.2,2.7-0.8c1.5-1.1,1.7-2.5,1.3-4.3C104.3,80.5,103.4,76.2,103.7,71.2z"/>
	<path class="st3" d="M103.7,71.2c0-0.7,0.1-1.4,0.1-2.1c0.1-0.7,0.2-1.4,0.3-2.1c0.3-2.2,0.4-4.4,0.5-6.7c0-0.5,0.1-1,0.1-1.6
		c-0.8,0.4-1.6,0.8-2.5,1.1c-2,0.8-3.9,1.6-6,1.9c-0.3,0-0.6,0.1-0.8,0.1c0.4,0.1,0.8,0.2,1.3,0.3c0.1,2.1,0.2,4.2,0.1,6.3
		c0,1.6-0.1,3.3-0.1,5c0,1.5-0.2,2.9,0.2,4.4c0,0.1-0.1,0.2-0.1,0.3c-2,0.9-3.4,2.6-3.7,4.8c-0.9,0.1-1.7,0.3-2.4,0.4
		c-2.7,0.2-5.4,0.3-8,0.4c-2.2,0.1-5,0.4-7.2-0.2c0,0,0,0,0,0c0,0,0,0,0,0c-0.3-0.1-0.6-0.2-0.8-0.4c-2.9,1.1-5.9,0.6-8.9-0.4
		c-3.1-1.1-6.1-2.6-9.3-3.5c-4.3-1.2-8.8-2.7-12.5-5.4c-0.5-0.4-0.9-0.8-1.2-1.3c-1.7-0.2-3.5-0.5-5.2-0.8c-2.5-0.8-5.1-1.4-7.8-1.8
		c-1.6-0.3-3.3-0.5-4.9-0.6c-1.8-0.4-3.5-0.8-5.3-1.2c-0.5-0.1-0.8,0.2-0.9,0.5c0-0.1,0-0.1,0-0.2c0-0.3-0.5-3.2-0.8-2.8
		c3.7-6,7.5-12.1,11.3-18.2c0.4,0.2,0.8,0,1-0.3c0.5,0.2,1,0.3,1.5,0.3c0.7-0.1,1.3-0.5,2-0.9c0.7-0.4,1.5-0.8,2.2-1.3
		c1.4-0.8,2.9-1.7,4.3-2.6c0.7-0.4,1.4-0.8,1.6-1.7c0.2-0.8-0.3-1.6-0.5-2.3c-0.5-1.2-1-2.5-1.5-3.7c2.2-2.6,4.5-5,7.1-7.2
		c0.6-0.5,1.4-0.9,1.8-1.8c0.4-0.8,0-1.7-0.4-2.5c-0.9-1.7-1.9-3.3-3.1-4.8c-0.4-0.5-1.1-0.4-1.6,0c-1.9,1.6-3.5,3.4-4.8,5.4
		c-0.7,1-1.2,2-1.7,3.1c-0.2,0.5-0.4,1-0.6,1.4c-0.3,0-0.6,0-0.9,0.1c-4.6,2.3-9.3,4.5-13.9,6.8c-0.9,0.5-0.7,1.5-0.1,1.9
		c0,0.2,0,0.4,0.1,0.7c1,1.6,2.1,3.2,3.2,4.8c-4.5,6.6-8.9,13.3-13.3,20.1c-1.1,1.6-2.1,3.3-3.1,5c-0.5,0.8-0.9,1.7-1,2.7
		c-0.1,0.3-0.1,0.6-0.1,0.9c0.1,2.2,2.5,3.6,4.6,3.7c0.4,0,0.8-0.1,1.1-0.2c0.2,0.1,0.5,0.1,0.7,0.2c0.1,0.3,0.2,0.5,0.5,0.6
		c3.4,1.4,7.1,2,10.6,2.8c1.8,0.4,3.5,0.8,5.3,1.2c0.8,0.2,1.7,0.4,2.5,0.5c0.4,0.1,0.8,0.2,1.3,0.3c0.1,0,0.3,0.1,0.4,0.1
		c-0.2,0.2-0.4,0.4-0.6,0.6c-4.9,5.2-9.1,14.1-5.4,21.1c3.9,7.3,12.9,8.3,20.2,7.2c7.7-1.2,16.1-3.5,22-8.9c0.4-0.4,0.9-0.8,1.3-1.3
		c0.9,0,1.9-0.3,2.8-0.5c1.2-0.3,2.3-0.6,3.5-1c2.4-0.7,4.8-1.4,7.1-2.2c2.8-1,5.6-2.1,8.4-3.2c0.6-0.1,1.1-0.3,1.7-0.4
		c1.2-0.3,2.6-0.7,3.8-1.1c0.5-0.2,1.2-0.3,1.7-0.5c1,0.1,2-0.2,2.7-0.8c1.5-1.1,1.7-2.5,1.3-4.3C104.3,80.5,103.4,76.2,103.7,71.2
		 M50.5,78.5c0.5,0.1,1.1,0.1,1.6,0.2c0.9,0.3,1.8,0.7,2.8,1c-0.4,0.3-0.8,0.6-1.2,0.9c-1.1,0.9-2.3,1.7-3.4,2.6
		c-2.3,1.8-4.5,3.7-6.6,5.7c-3.2,2.9-6.2,6-9,9.2c0.3-0.6,0.6-1.1,0.9-1.7c1.3-2.4,2.8-4.7,4.4-6.8c1.6-2.1,3.4-4.2,5.3-6.1
		c1-1,2-1.9,3.1-2.8C49.1,80,50,79.4,50.5,78.5 M46.5,78.6c-0.1,0.1-0.1,0.1-0.2,0.2c-1.1,1-2.1,2-3.1,3.1C43.1,81.9,43,82,42.9,82
		c-1.5,0.7-2.9,1.4-4.6,1.7c-0.6,0.1-1.1,0.1-1.7,0.1C39.3,80.8,42.8,79.1,46.5,78.6 M43.5,21.7c0.3-0.2,0.5-0.5,0.8-0.7
		c0.4,0.5,0.7,1,1,1.6c0.3,0.4,0.5,0.9,0.8,1.4c0.2,0.3,0.4,0.6,0.5,1c-0.3,0.3-0.6,0.5-0.9,0.7c-0.4,0.3-0.9,0.7-1.3,1
		c-0.2,0.2-0.5,0.4-0.7,0.7c-0.1-0.1-0.1-0.2-0.2-0.2c-0.1-0.1-0.1-0.1-0.2-0.2c-0.1-0.1-0.2-0.2-0.4-0.3c-0.2-0.2-0.5-0.5-0.8-0.7
		c-0.2-0.2-0.6-0.5-0.7-0.6c-0.1-0.1-0.1-0.1-0.1-0.1C41.9,23.9,42.7,22.8,43.5,21.7 M38.8,30.5c0.3-1.1,0.7-2.2,1.2-3.3
		c0.1-0.3,0.3-0.5,0.4-0.8c0.2,0.2,0.4,0.4,0.6,0.5c0.2,0.2,0.5,0.5,0.7,0.7c0.2,0.2,0.2,0.2,0.4,0.4c0.2,0.1,0.2,0.2,0.4,0.3
		c-0.2,0.2-0.5,0.5-0.7,0.7c-1,1.1-2.1,2.2-3,3.3c0-0.1-0.1-0.2-0.1-0.3C38.6,31.5,38.6,31,38.8,30.5 M24.1,37
		c3.8-1.8,7.7-3.7,11.5-5.6c0.5,1.2,1,2.4,1.5,3.7c0,0.1,0.1,0.2,0.1,0.2c0,0.1,0.1,0.2,0.1,0.3c0.3,0.9,0.7,1.8,1,2.6
		c0.1,0.2,0.2,0.5,0.3,0.7c0.1,0.4,0.2,0.8,0.3,1.2c-0.1,0-0.2,0.1-0.3,0.2c0,0,0,0,0,0c-0.6,0.3-1.2,0.6-1.7,0.8
		c-0.7-0.9-1.4-1.7-2.1-2.6c-0.5-0.6-1-1.2-1.5-1.8c-0.5-0.5-1.1-1.3-1.5-1.7c-0.4-0.4-1,0-0.7,0.5c0.3,0.5,0.9,1.3,1.3,1.9
		c0.4,0.6,0.9,1.2,1.4,1.8c0.6,0.8,1.2,1.6,1.8,2.4c-0.3,0.1-0.5,0.2-0.7,0.3c-0.5,0.2-1,0.4-1.4,0.6c-0.4-0.5-0.9-0.9-1.4-1.3
		c-0.5-0.5-1-1-1.4-1.4c-0.9-1-1.8-2-2.7-3c-0.4-0.5-1.2,0.1-0.9,0.7c0.7,1.2,1.7,2.2,2.6,3.3c0.4,0.5,0.9,1,1.4,1.5
		c0.3,0.3,0.6,0.6,0.9,0.9c-0.3,0.1-0.5,0.1-0.8,0.1c-0.4-0.1-0.7-0.4-1-0.7c-1.3-1.1-2.4-2.1-3.6-3.3C25.7,38.7,24.9,37.8,24.1,37
		 M14,69.6c0.3,1.2,0.1,2.1-0.8,2.7c-0.4,0.2-0.9,0.3-1.3,0.4c-0.5,0-1.1-0.1-1.6-0.5C9.6,71.7,9.7,71,10,70.3
		c0.7-1.5,1.6-2.6,2.5-4c0.9-1.4,1.9-3,2.8-4.5c1.1-1.7,2.1-3.4,3.2-5.2c2.6-4.1,5.3-8.1,8-12.2c0.5,0.6,1,1.1,1.5,1.6
		c-4.1,6.1-8,12.4-11.5,18.9c-0.1,0.1-0.2,0.2-0.3,0.3c-0.1,0.1-0.1,0.3-0.1,0.4c0,0.1-0.1,0.2-0.1,0.2c-0.4,0.7,0.4,1.3,0.9,0.9
		C17,67,17,67,17,67c0,0.1,0.1,0.1,0.1,0.1c0,0,0,0,0,0.1c0,0,0,0.1,0,0.1c0,0,0,0.1,0,0.2c0,0,0,0.1,0,0.2c0,0,0,0.1,0,0.1
		c0,0,0,0.1,0,0.1c0,0,0,0.2,0,0.2c0,0,0,0.2,0,0.1c0-0.1,0,0,0,0.1c0,0.1-0.1,0.2-0.1,0.3c0,0,0,0,0,0c0,0,0,0,0,0
		c0,0.1-0.1,0.1-0.1,0.2c0,0-0.2,0.3-0.2,0.3c0,0,0,0,0,0c-0.1,0.1-0.1,0.1-0.1,0.1c-0.1,0.1-0.1,0.1-0.2,0.2
		c-0.1-0.1-0.2-0.2-0.3-0.3c-0.1-0.1-0.1-0.1-0.2-0.1C15.6,67.6,13.6,68.2,14,69.6 M25,75c-2-0.2-4-0.4-6-0.6
		c-1.2-0.1-2.5-0.4-3.9-0.5c0.9-0.7,1.6-1.7,2.1-2.5c0.1-0.2,0.3-0.4,0.4-0.6c1.8,0.4,3.8,0.5,5.6,0.7c1,0.1,2,0.3,3.1,0.4
		c4.2,1.2,8.4,2.2,12.7,3c0.5,0.2,0.9,0.3,1.4,0.5c0.1,0.1,0.2,0.1,0.3,0.1c0.4,0.1,0.8,0.2,1.2,0.3l0.5,0.1
		c-1.9,0.6-3.7,1.5-5.4,2.6c-0.4-0.3-0.8-0.5-1.3-0.6C32.4,76.2,28.8,75.4,25,75 M35,85.7c0.2,0,0.5,0.1,0.7,0.1c1,0.1,2,0,3-0.2
		c0.5-0.1,1-0.2,1.5-0.3c-0.9,1.1-1.7,2.3-2.6,3.4c-0.7,1-1.4,2.1-2,3.2c0,0-0.1,0-0.1,0c-0.5,0.2-0.9,0.3-1.4,0.5
		c-0.5,0.1-1,0.3-1.5,0.5c-0.4,0.1-0.8,0.2-1.2,0.3C32,90.4,33.5,87.8,35,85.7 M31.7,99.8c-0.6-1.3-0.8-2.8-0.7-4.3
		c0.2,0,0.4-0.1,0.6-0.1c0.6-0.1,1.1-0.3,1.6-0.5c0.3-0.1,0.6-0.3,0.9-0.4c-0.3,0.6-0.6,1.2-0.9,1.8C32.6,97.4,32.1,98.6,31.7,99.8
		 M34,102.9c1.4-1.6,2.8-3.1,4.2-4.6c0.3,1.5,0.7,2.9,1,4.4c0.2,0.9,0.5,1.8,0.7,2.6c0,0.1,0.1,0.2,0.1,0.3
		C37.8,105.2,35.7,104.4,34,102.9 M42.9,105.9c-0.1-0.4-0.3-0.8-0.4-1.2l-0.8-2.7c-0.5-1.8-1-3.6-1.8-5.3c0,0,0-0.1-0.1-0.1
		c1.4-1.4,2.9-2.9,4.4-4.2c0.1,0.6,0.2,1.2,0.3,1.7c0.3,1.4,0.6,2.8,1,4.1c0.7,2.4,1.5,5.2,3.5,6.8c0.1,0.1,0.2,0.1,0.3,0.2
		C47.3,105.6,45.1,105.9,42.9,105.9 M54.2,104.1c-1.3-0.1-2.7-0.4-3.7-1.3c-0.8-0.7-1.2-1.7-1.5-2.6c-0.4-1.1-0.8-2.3-1.2-3.4
		c-0.4-1.1-0.7-2.3-0.9-3.5c-0.2-0.9-0.4-1.8-0.7-2.7c1.2-1.1,2.4-2.1,3.6-3.1c-0.1,0.6-0.1,1.3-0.1,1.9c0.2,1.6,0.5,3.2,1.1,4.7
		c1.1,2.8,3.2,5.3,6,6.6c1.5,0.7,3.2,1,4.8,1C59.3,102.7,56.8,103.5,54.2,104.1 M71.9,90.1c-1.6,1.8-4,2.5-6.3,2.3
		c-4.7-0.3-8.3-4.7-8.6-9.3c-0.1-0.8-1.2-0.8-1.3,0c-0.6,6,4.1,11.3,10.1,11.9c1.7,0.2,3.5-0.1,5.1-0.8c-0.4,0.7-0.9,1.4-1.5,2
		c-0.7,0.6-1.5,1.1-2.3,1.6c-2.8,1.5-6.4,2-9.4,0.5c-2.3-1.2-3.9-3.3-4.8-5.6c-0.5-1.2-0.8-2.5-1-3.8c-0.1-0.9-0.3-1.9-0.4-2.8
		c0.2-0.2,0.4-0.3,0.6-0.5c1.2-0.9,2.3-1.8,3.5-2.7c0.9-0.7,1.9-1.2,2.2-2.2c3.4,1.2,6.7,2.4,10.1,3.6c0.1-0.1,0.2-0.1,0.3-0.2
		c0.1,0.2,0.2,0.3,0.3,0.4c1.8,1.6,3.5,2.9,3.6,5.4C72,90,72,90.1,71.9,90.1 M74.3,96.4c0.1-0.1,0.1-0.2,0.2-0.3
		c0.1,0.1,0.2,0.1,0.3,0.2C74.7,96.4,74.5,96.4,74.3,96.4 M99.3,67c0.1-0.6,0.3-1.3,0.4-1.9c0.2,0,0.4,0,0.6,0
		c-0.5,1.4-1,2.8-1.4,4.3C98.9,68.6,99.1,67.8,99.3,67 M102.4,87.6c-0.5,0-1.1,0.2-1.6,0.3c-0.4-0.1-0.8-0.4-1-0.8
		c-0.7-1.1-0.4-2.4,0.2-3.6s-1-2.3-1.8-1.1c-1.3,1.9-1.4,4.3-0.3,6c-1.5,0.6-3,1.2-4.5,1.7c-1.7,0.4-3.5,0.9-5.2,1.2
		c-2.4,0.5-4.7,0.9-7.1,1.3c-1.2,0.2-2.4,0.4-3.6,0.6c-0.6,0.1-1.2,0.2-1.8,0.3c0.4-1.3,0.6-2.6,0.5-3.9c0-0.2,0-0.4-0.1-0.7
		c0.3-0.6,0.5-1.3,0.5-2c0.2,0,0.3,0,0.5,0c1.7,0.2,3.5,0.1,5.1,0.1c2.8,0,5.5-0.3,8.2-0.7c1.3-0.2,2.7-0.4,4-0.7
		c1.2-0.2,2.4-0.6,2.9-1.7c0.1-0.1,0.1-0.3-0.1-0.4c0,0-0.1-0.1-0.1-0.1c0-0.4-0.2-0.6-0.5-0.7c-0.7-0.3-1.3-0.1-1.9,0h0
		c0.5-1.3,1.5-2.3,3-2.8c0.6-0.2,0.8-0.7,0.8-1.3c0-0.4-0.1-0.7-0.3-1c0.2-1.4,0.1-2.6,0.1-4.1c0-0.4,0-0.8,0-1.2
		c0.7-2.4,1.8-4.8,2.6-7.1c0.1-0.4,0.3-0.7,0.4-1.1c0.1-0.2,0.2-0.3,0.3-0.5c0,1.3,0,2.6-0.1,3.9c-0.1,3.8-0.6,7.6-0.2,11.4
		c0.2,1.8,0.6,3.4,0.9,5.1C102.7,85.1,103.4,86.7,102.4,87.6"/>
	<path class="st1" d="M3.4,38.8C3.4,38.8,3.4,38.8,3.4,38.8c-0.1,0-0.1,0.1-0.1,0.1C3.4,38.8,3.4,38.8,3.4,38.8
		C3.4,38.8,3.4,38.8,3.4,38.8"/>
	<path class="st3" d="M3.4,38.8C3.4,38.8,3.4,38.8,3.4,38.8C3.4,38.8,3.4,38.8,3.4,38.8c0,0.1,0,0.1,0,0.1
		C3.4,38.8,3.4,38.8,3.4,38.8"/>
	<path class="st1" d="M79.6,64.3l-0.2,0C79.4,64.3,79.5,64.3,79.6,64.3C79.6,64.4,79.6,64.4,79.6,64.3"/>
	<path class="st1" d="M60.7,54.8c0.2,0.2,0.3,0.3,0.5,0.5c0-0.3-0.1-0.5-0.1-0.8C61,54.6,60.9,54.7,60.7,54.8"/>
	<path class="st1" d="M78.9,62.5c-0.1,0.1-0.2,0.2-0.3,0.3c1.3,0.2,2.5,0.4,3.8,0.6c3.1,0.5,6.1,0.7,9.2,1.1c0.7-0.1,1.3-0.2,2-0.5
		c1.7-1.4,3.4-2.7,5.4-3.8c0.6-2.6,0.1-5.6-1.2-8.1c-0.1-0.2-0.1-0.4,0-0.5c-1.8-4.1-3.8-8.1-5.8-12.1c-1.3-2.5-2.5-5-3.8-7.5
		c-1.2-1.3-2.7-2.4-4.1-3.5c-0.5-0.3-0.9-0.6-1.4-0.9c-0.9-0.5-1.7-0.9-2.6-1.3c-1.9-0.7-3.7-1.3-5.7-1.6c-3.1-0.4-6.2-0.3-9.2,0.4
		c-0.2,0.1-0.5,0.1-0.7,0.2c0,0-0.1,0-0.1,0c-0.4,0.1-0.8,0.2-1.2,0.4c-0.1,0-0.1,0-0.2,0.1c-1.3,0.5-2.5,1.1-3.6,2
		c-0.6,0.7-1.2,1.4-1.7,2.1c-1.1,1.4-2.1,2.9-3,4.5c-0.9,1.6-1.7,3.3-2.5,5c-0.7,1.6-1.2,3.3-1.9,4.9c0,0,0,0,0,0
		c0.6,0.9,1,1.9,1.3,3c0-0.1,0.1-0.3,0.1-0.4c0.3-0.8,0.7-1.6,1.1-2.4c0.8-1.6,1.9-3,3.1-4.3c0.4-0.4,1.2-0.4,1.6,0
		c0.3,0.4,0.6,0.8,0.8,1.3c0.1,0.4,0.2,0.9,0.1,1.4c0,0.9-0.3,1.8-0.5,2.7c-0.3,1.1-0.6,2.1-0.9,3.1c-0.2,0.5-0.4,1.1-0.7,1.5
		c-0.3,0.4-0.6,0.7-1,1c-0.2,0.1-0.5,0.1-0.6-0.2c-0.2-0.4-0.4-0.9-0.4-1.4c0-0.5,0.1-1,0.2-1.5c0.2-0.9,0.5-1.8,0.8-2.7
		c0.2-0.6,0.4-1.2,0.6-1.9c-0.4,0.6-0.9,1.2-1.2,1.9c-0.4,0.7-0.8,1.4-1.1,2.1c-0.4,0.7-0.8,1.4-1.1,2.2c-0.1,0.2-0.2,0.3-0.3,0.4
		c0,0.1,0,0.2,0,0.3c0.2,0.7,0.2,1.4,0.1,2.1c-0.4,1.7-1,3.3-1.6,4.9c-0.5,1.5-1.1,3.1-1.7,4.6c0.2,0.1,0.4,0.2,0.6,0.3
		c0.8,0.1,1.6,0.2,2.3,0.3c0.1-0.3,0.3-0.6,0.4-0.9c0.3-0.7,0.5-1.4,0.8-2.1c0.1-0.4,0.5-0.6,0.9-0.5c0.3,0.1,0.6,0.5,0.5,0.9
		c-0.3,0.8-0.7,1.5-1.1,2.2c-0.1,0.2-0.2,0.4-0.3,0.6c0.9,0.1,1.8,0.2,2.7,0.3c0.4-1.1,0.9-2.2,1.3-3.3c0.1-0.3,0.4-0.5,0.7-0.4
		c0.3,0.1,0.5,0.5,0.4,0.7c-0.4,1-0.9,2.1-1.3,3.1c0.2,0,0.4,0.1,0.6,0.1c0.1,0,0.2,0,0.3,0c0.9,0.1,1.8,0.1,2.6,0.2
		c0-0.1,0.1-0.1,0.1-0.2c0.1-0.3,0.3-0.5,0.4-0.8c0.1-0.3,0.3-0.6,0.4-0.8c0.1-0.3,0.2-0.5,0.4-0.8c0.2-0.3,0.6-0.5,1-0.3
		c0.4,0.2,0.6,0.6,0.5,0.9c-0.1,0.4-0.3,0.7-0.5,1c-0.1,0.3-0.3,0.5-0.4,0.8c-0.1,0.1-0.1,0.2-0.2,0.3c0.4,0,0.7,0,1.1,0.1
		c0.8,0.1,1.9,0.1,2.9,0.4c0.1-0.2,0.2-0.4,0.3-0.6c0.1,0,0.2-0.1,0.3-0.2c0.8-0.8,1.5-1.8,2.2-2.8c0.2,0,0.4,0,0.6,0
		c1.7,0.4,3.5,0.8,5.2,1.3c0.2,0,0.4,0.1,0.6,0.1c0.4-0.3,0.9-0.1,1.1,0.2c0.4,0.1,0.8,0.1,1.2,0.2c0.2-0.3,0.4-0.5,0.6-0.8
		C78.7,61.4,79.3,62.1,78.9,62.5 M62.3,59.6c-0.7-0.8-1.4-1.7-2.1-2.5c-0.3-0.4-0.7-0.8-1-1.2c-0.1-0.1-0.2-0.3-0.3-0.4
		c0,0-0.1-0.1-0.1-0.1c0,0,0,0,0,0c-0.1,0,0,0-0.2,0.1s-0.3,0.2-0.7,0.3c-0.3,0.1-0.8,0.4-1.3,0.5c-0.8,0.2-2,0.4-2.8,0.4
		c-0.8,0-1.3-0.8-0.9-1.4c0,0,0,0,0,0c2.1-1.6,3.9-3.6,6-5.2c0.8-0.6,1.6-1.2,2.5-1.7c0,0,0.1,0,0.1,0c0.3-0.3,0.8-0.4,1.3-0.3
		c0,0,0,0.1,0,0.1c0.1,0.3,0.2,0.5,0.2,0.8c0.1,0.6,0.2,1.1,0.3,1.7c0,0.1,0,0.2,0,0.3c0,0.1,0,0.3,0.1,0.4c0,0.2,0,0.3,0,0.5
		c0,1.8,0.3,3.5,0.6,5.3c0.1,0.5,0.2,1,0.3,1.5c0,0.2,0.1,0.5,0.1,0.7C64.8,60.5,63,60.4,62.3,59.6 M75.8,54.7
		c0.1-1.1,0.7-2.2,1-3.2c0.3-1,0.6-2,0.9-3.1c0.2-0.8,0.5-1.8,0.4-2.6c-0.1-0.3-0.1-0.4-0.3-0.6c-0.2-0.2,0,0-0.2-0.2
		c0.1,0.1-0.2,0,0,0c-0.3,0-0.5,0.3-0.7,0.4c-0.4,0.3-0.7,0.7-1.1,1c-0.6,0.6-1.2,1.3-1.7,2c-1.1,1.5-2,3.1-2.9,4.7
		c-0.4,0.8-1.5,0.2-1.4-0.6c0.4-2,1.3-3.8,2.5-5.4c1-1.4,2.1-2.9,3.4-4c0.8-0.7,1.8-1,2.8-0.8c0.9,0.2,1.7,0.8,2.2,1.6
		c1.2,1.8,0.6,4.2,0.1,6.1c-0.2,0.9-0.5,1.8-0.8,2.7c-0.3,1-0.6,2.3-1.4,3.1C77.6,56.8,75.8,56,75.8,54.7"/>
	<path class="st1" d="M69.7,72.5c-0.4,0.5-0.8,1-1.1,1.6c-0.1,0.3-0.3,0.6-0.4,0.9c1.2-1.7,2.4-3.4,3.7-5.1
		C71.1,70.8,70.4,71.7,69.7,72.5"/>
	<path class="st1" d="M48.1,73.5c-0.7,2-1.5,4-2.2,5.9c2,0.1,4.1,0.7,5.9,2c0.1,0.1,0.2,0.2,0.3,0.3c2,0.9,3.8,1.6,4.3,1.8
		c3.3,1.4,7.7,3.1,10.8,0.4c1.6-1.4,3.1-2.8,4.6-4.3c2.6-2.6,4.9-5.5,7.3-8.3c0-0.1,0.1-0.2,0.1-0.2c0.3-1,0.7-1.9,1-2.9
		c-0.9-0.1-1.9-0.4-2.6-0.6c-0.6-0.2-1.2-0.4-1.9-0.6c-0.1,0-0.2,0-0.3-0.1c0,0,0,0,0,0c-0.1,0.1-0.2,0.2-0.3,0.2
		c-2.5,3.1-4.8,6.2-7,9.5c0,0.3-0.1,0.6-0.4,0.7c-0.2,0.1-0.3,0.1-0.4,0.2c-0.1,0.5-0.1,0.9-0.2,1.4c-0.1,0.9-0.1,2-0.7,2.8
		c-0.4,0.7-1.5,0.6-1.7-0.2c-0.3-0.9,0.1-1.8,0.2-2.8c0.1-0.5,0.2-1,0.3-1.6c-1-0.3-1.9-0.5-2.9-0.8c-0.2,0-0.4-0.1-0.6-0.1
		c0,0,0,0,0,0c-0.1,0.4-0.1,0.8-0.2,1.1c-0.1,0.8-0.3,1.5-0.4,2.3c-0.1,0.4-0.6,0.7-1,0.6c-0.4-0.1-0.7-0.6-0.6-1
		c0.2-0.8,0.3-1.5,0.5-2.3c0.1-0.4,0.2-0.7,0.3-1.1c-1.2-0.3-2.3-0.5-3.5-0.8c0,0.2-0.1,0.3-0.1,0.5c-0.1,0.3-0.2,0.6-0.2,0.9
		c-0.2,0.6-0.4,1.3-0.5,1.9c-0.1,0.4-0.5,0.6-0.9,0.5c-0.4-0.1-0.6-0.5-0.5-0.9c0.4-1.1,0.7-2.1,1.1-3.2c0,0,0,0,0,0
		c-1.1-0.2-2.3-0.4-3.4-0.6c-0.1,0.3-0.2,0.6-0.2,1c-0.1,0.3-0.2,0.6-0.2,0.9c-0.1,0.3-0.1,0.8-0.5,1c-0.2,0.1-0.5,0.1-0.6-0.2
		c-0.2-0.3,0-0.8,0.1-1.1c0.1-0.3,0.2-0.6,0.3-0.9c0.1-0.3,0.2-0.6,0.3-0.9c-0.3,0-0.6-0.1-0.9-0.1C49.5,74,48.8,73.8,48.1,73.5"/>
	<path class="st1" d="M74,14.8c-0.2-0.1-0.4-0.1-0.6-0.2c-0.5,0.2-0.9,0-1.2-0.4c-4.2-1.1-8.6-0.7-12.9,0.2c-1.1,0.2-2,0.5-2.9,1.4
		c-0.8,0.8-0.9,2.3-0.7,3.4c0.3,2.2,0.9,4.4,1.4,6.6c0.2-0.2,0.3-0.3,0.5-0.4c0.5-0.3,1-0.5,1.5-0.5c0.1,0,0.1-0.1,0.2-0.1
		c2.9-1.6,5.8-2.3,9-2.6c3.2-0.2,6.5,0.2,9.6,1c1.6,0.4,3.1,1.1,4.6,1.8c0.9,0.4,1.8,0.9,2.6,1.4c-0.3-0.6-0.6-1.2-1-1.7
		C81.6,20.5,78.8,16.7,74,14.8"/>
	<path class="st1" d="M114.2,40.4c-0.6-2.6-1.3-5.1-2.2-7.6c-1.2-2.5-2.5-4.9-4-7.2c-0.2-0.3-0.4-0.6-0.6-0.8
		c-4.4-5.7-10.1-10-17.2-13c-2.8-1.2-5.6-1.6-8.6-1.9c-2.5-0.2-4.6,0.3-6.5,1.4c0,0-0.1,0-0.1,0c-0.4,0.2-0.8,0.5-1.2,0.8
		c-2.4-0.8-4.9-1-7.5-1c-2.8,0-5.6,0.3-8.3,1.2c-2.7,0.9-4.4,2.7-4.6,5.7c-0.1,1.6,0.5,3.2,0.8,4.7c0.1,0.3,0.1,0.6,0.2,0.9
		c0,0.1,0,0.1,0,0.2c0.2,0.9,0.4,1.7,0.6,2.5c-1,0.8-1.5,2.2-2.1,3.4c-0.9,1.7-1.8,3.5-2.8,5.2c-0.9,1.7-1.8,3.5-2.8,5.2
		c-0.6,1.1-1.7,2.5-1.5,3.9c0.1,1.3,1.4,2.5,2.2,3.5c0.7,0.9,0.9,1,0.7,2.1c-0.1,1-0.5,1.9-0.8,2.9c-1,3.9-2,7.7-2.9,11.6
		c-0.3,1,0.8,1.6,1.5,1.4c0.2,0.1,0.4,0.2,0.6,0.1c1.3,0.1,2.7,0,4,0.1c1.7,0.1,3.4,0.2,5,0.4c1.6,0.1,3.2,0.3,4.9,0.5
		c0.8,0.1,1.6,0.2,2.4,0.4c0.8,0.1,1.7,0.4,2.5,0.3c0.3,0,0.6-0.2,0.8-0.5c0.1,0.1,0.3,0.1,0.4,0.2c0.2-0.2,0.5-0.4,0.7-0.6
		c0.7-0.6,1.3-1.3,1.9-2c0,0,0-0.1,0-0.1c0.5-0.6,1-1.2,1.6-1.3c0.5-0.1,1.6,0.3,2.1,0.4c0.3,0,0.5,0.1,0.8,0.1
		c-0.2,0.3-0.4,0.7-0.6,1c-0.4,0.6-0.8,1.3-1.2,1.9c-0.8,1.2-1.6,2.3-2.3,3.5c-1.2,1.8-2.4,3.5-3.6,5.2c-0.1,0-0.2-0.1-0.3-0.1
		c-0.1,0-0.1,0-0.2,0c-0.9-0.3-1.9-0.5-2.6-0.8c-1.9-0.6-3.8-1.1-5.7-1.5c-1.8-0.4-3.7-0.7-5.5-1c-1.5-0.2-3.2-0.4-4.4-1.4
		c-0.6-0.6-1.8-0.6-2.2,0.3c-0.4,0.8-0.8,1.5-1.2,2.3c-0.1,0.2-0.1,0.5-0.2,0.7c0,0.2-0.1,0.4-0.1,0.5c-0.5,1.8-1.1,3.7-1.7,5.5
		c0,0,0,0,0,0c0.5,0.5,1.9,1.2,2.8,1.5c4.2,1.7,8.8,2.4,13,4c2.5,1,5.9,2.7,8.3,1.6c0.4-0.2,0.8-0.4,1.2-0.6c-0.7-1.3,0.6-2.9,2-2.6
		c1.4-1.1,2.5-2.4,3.6-3.8c4-5.1,9-15.1,16.8-13.7c4.6-1.3,8.6-3.7,12.7-6.2c1.3-1.1,2.6-2.3,3.9-3.4c0.1-0.1,0.2-0.2,0.3-0.3
		c1.3-1.8,2.6-3.7,3.8-5.6c1.7-2.7,3-5.3,3.2-8.5C114.2,41.5,114.2,41,114.2,40.4"/>
	<path class="st2" d="M114.2,40.4c-0.6-2.6-1.3-5.1-2.2-7.6c-1.2-2.5-2.5-4.9-4-7.2c-0.2-0.3-0.4-0.6-0.6-0.8
		c-4.4-5.7-10.1-10-17.2-13c-2.8-1.2-5.6-1.6-8.6-1.9c-2.5-0.2-4.6,0.3-6.5,1.4c0,0-0.1,0-0.1,0c-0.4,0.2-0.8,0.5-1.2,0.8
		c-2.4-0.8-4.9-1-7.5-1c-2.8,0-5.6,0.3-8.3,1.2c-2.7,0.9-4.4,2.7-4.6,5.7c-0.1,1.6,0.5,3.2,0.8,4.7c0.1,0.3,0.1,0.6,0.2,0.9
		c0,0.1,0,0.1,0,0.2c0.2,0.9,0.4,1.7,0.6,2.5c-1,0.8-1.5,2.2-2.1,3.4c-0.9,1.7-1.8,3.5-2.8,5.2c-0.9,1.7-1.8,3.5-2.8,5.2
		c-0.6,1.1-1.7,2.5-1.5,3.9c0.1,1.3,1.4,2.5,2.2,3.5c0.7,0.9,0.9,1,0.7,2.1c-0.1,1-0.5,1.9-0.8,2.9c-1,3.9-2,7.7-2.9,11.6
		c-0.3,1,0.8,1.6,1.5,1.4c0.2,0.1,0.4,0.2,0.6,0.1c1.3,0.1,2.7,0,4,0.1c1.7,0.1,3.4,0.2,5,0.4c1.6,0.1,3.2,0.3,4.9,0.5
		c0.8,0.1,1.6,0.2,2.4,0.4c0.8,0.1,1.7,0.4,2.5,0.3c0.3,0,0.6-0.2,0.8-0.5c0.1,0.1,0.3,0.1,0.4,0.2c0.2-0.2,0.5-0.4,0.7-0.6
		c0.7-0.6,1.3-1.3,1.9-2c0,0,0-0.1,0-0.1c0.5-0.6,1-1.2,1.6-1.3c0.5-0.1,1.6,0.3,2.1,0.4c0.3,0,0.5,0.1,0.8,0.1
		c-0.2,0.3-0.4,0.7-0.6,1c-0.4,0.6-0.8,1.3-1.2,1.9c-0.8,1.2-1.6,2.3-2.3,3.5c-1.2,1.8-2.4,3.5-3.6,5.2c-0.1,0-0.2-0.1-0.3-0.1
		c-0.1,0-0.1,0-0.2,0c-0.9-0.3-1.9-0.5-2.6-0.8c-1.9-0.6-3.8-1.1-5.7-1.5c-1.8-0.4-3.7-0.7-5.5-1c-1.5-0.2-3.2-0.4-4.4-1.4
		c-0.6-0.6-1.8-0.6-2.2,0.3c-0.4,0.8-0.8,1.5-1.2,2.3c-0.1,0.2-0.1,0.5-0.2,0.7c0,0.2-0.1,0.4-0.1,0.5c-0.5,1.8-1.1,3.7-1.7,5.5
		c0,0,0,0,0,0c0.5,0.5,1.9,1.2,2.8,1.5c4.2,1.7,8.8,2.4,13,4c2.5,1,5.9,2.7,8.3,1.6c0.4-0.2,0.8-0.4,1.2-0.6c-0.7-1.3,0.6-2.9,2-2.6
		c1.4-1.1,2.5-2.4,3.6-3.8c4-5.1,9-15.1,16.8-13.7c4.6-1.3,8.6-3.7,12.7-6.2c1.3-1.1,2.6-2.3,3.9-3.4c0.1-0.1,0.2-0.2,0.3-0.3
		c1.3-1.8,2.6-3.7,3.8-5.6c1.7-2.7,3-5.3,3.2-8.5C114.2,41.5,114.2,41,114.2,40.4z"/>
	<path class="st3" d="M64.2,57c-0.3-1.8-0.6-3.5-0.6-5.3c0-0.2,0-0.3-0.1-0.5c0-0.1,0-0.3,0-0.4c0-0.1,0-0.2,0-0.3
		c-0.1-0.6-0.2-1.1-0.3-1.7c-0.1-0.3-0.1-0.5-0.2-0.8c0,0,0-0.1,0-0.1c-0.5-0.1-0.9,0-1.3,0.3c0,0-0.1,0-0.1,0
		c-0.9,0.4-1.7,1.1-2.5,1.7c-2.1,1.6-3.9,3.7-6,5.2c0,0,0,0,0,0c-0.4,0.6,0.1,1.4,0.9,1.4c0.8,0,2-0.1,2.8-0.4
		c0.4-0.1,0.9-0.3,1.3-0.5c0.3-0.1,0.5-0.2,0.6-0.3s0.1-0.1,0.2-0.1c0,0,0,0,0,0c0,0,0.1,0.1,0.1,0.1c0.1,0.1,0.2,0.3,0.3,0.4
		c0.3,0.4,0.7,0.8,1,1.2c0.7,0.8,1.4,1.7,2.1,2.5c0.7,0.8,2.5,0.9,2.3-0.3c0-0.2-0.1-0.5-0.1-0.7C64.4,58,64.3,57.5,64.2,57
		 M60.7,54.8c0.1-0.1,0.3-0.1,0.4-0.3c0,0.3,0.1,0.5,0.1,0.8C61,55.1,60.9,54.9,60.7,54.8"/>
	<path class="st3" d="M114.2,40.4c-0.6-2.6-1.3-5.1-2.2-7.6c-1.2-2.5-2.5-4.9-4-7.2c-0.2-0.3-0.4-0.6-0.6-0.8
		c-4.4-5.7-10.1-10-17.2-13c-2.8-1.2-5.6-1.6-8.6-1.9c-2.5-0.2-4.6,0.3-6.5,1.4c0,0-0.1,0-0.1,0c-0.4,0.2-0.8,0.5-1.2,0.8
		c-2.4-0.8-4.9-1-7.5-1c-2.8,0-5.6,0.3-8.3,1.2c-2.7,0.9-4.4,2.7-4.6,5.7c-0.1,1.6,0.5,3.2,0.8,4.7c0.1,0.3,0.1,0.6,0.2,0.9
		c0,0.1,0,0.1,0,0.2c0.2,0.9,0.4,1.7,0.6,2.5c-1,0.8-1.5,2.2-2.1,3.4c-0.9,1.7-1.8,3.5-2.8,5.2c-0.9,1.7-1.8,3.5-2.8,5.2
		c-0.6,1.1-1.7,2.5-1.5,3.9c0.1,1.3,1.4,2.5,2.2,3.5c0.7,0.9,0.9,1,0.7,2.1c-0.1,1-0.5,1.9-0.8,2.9c-1,3.9-2,7.7-2.9,11.6
		c-0.3,1,0.8,1.6,1.5,1.4c0.2,0.1,0.4,0.2,0.6,0.1c1.3,0.1,2.7,0,4,0.1c1.7,0.1,3.4,0.2,5,0.4c1.6,0.1,3.2,0.3,4.9,0.5
		c0.8,0.1,1.6,0.2,2.4,0.4c0.8,0.1,1.7,0.4,2.5,0.3c0.3,0,0.6-0.2,0.8-0.5c0.1,0.1,0.3,0.1,0.4,0.2c0.2-0.2,0.5-0.4,0.7-0.6
		c0.7-0.6,1.3-1.3,1.9-2c0,0,0-0.1,0-0.1c0.5-0.6,1.1-1.2,1.6-1.3c0.5-0.1,1.6,0.3,2.1,0.4c0.3,0,0.5,0.1,0.8,0.1
		c-0.2,0.3-0.4,0.7-0.6,1c-0.4,0.6-0.8,1.3-1.2,1.9c-0.8,1.2-1.6,2.3-2.3,3.5c-1.2,1.8-2.4,3.5-3.6,5.2c-0.1,0-0.2-0.1-0.3-0.1
		c-0.1,0-0.1,0-0.2,0c-0.9-0.3-1.9-0.5-2.6-0.8c-1.9-0.6-3.8-1.1-5.7-1.5c-1.8-0.4-3.7-0.7-5.5-1c-1.5-0.2-3.2-0.4-4.4-1.4
		c-0.6-0.6-1.8-0.6-2.2,0.3c-0.4,0.8-0.8,1.5-1.2,2.3c-0.1,0.2-0.1,0.5-0.2,0.7c0,0.2-0.1,0.4-0.1,0.5c-0.5,1.8-1.1,3.7-1.7,5.5
		c0,0,0,0,0,0c0.5,0.4,1.9,1.2,2.8,1.5c4.2,1.7,8.8,2.4,13,4c2.5,1,5.9,2.7,8.3,1.6c0.9-0.4,1.7-0.9,2.6-1.5
		c-0.2-0.2-0.4-0.3-0.7-0.4c2.6-2.3,5.1-4.7,7.4-7.2c0.2-0.2,0.7-0.8,1.3-1.6c1.1-1,1.9-2.2,2.8-3.4c2.4-3,5-6.2,5-6.2
		c0.2,0.1,0.4,0.2,0.6,0.3c0.1-0.2,0.2-0.4,0.3-0.6c0.1-0.2,0.2-0.3,0.4-0.4c0.8,0.2,1.5,0.4,2.3,0.5c5.2-1.1,9.7-3.8,14.2-6.6
		c1.3-1.1,2.6-2.3,3.9-3.4c0.1-0.1,0.2-0.2,0.3-0.3c1.3-1.8,2.6-3.7,3.8-5.6c1.7-2.7,3-5.3,3.2-8.5C114.2,41.5,114.2,41,114.2,40.4
		 M56.4,15.8c0.8-0.8,1.8-1.2,2.9-1.4c4.4-0.9,8.7-1.3,12.9-0.2c0.2,0.3,0.7,0.6,1.2,0.4c0.2,0.1,0.4,0.1,0.6,0.2
		c4.8,1.8,7.6,5.7,10.1,9.9c0.3,0.6,0.7,1.2,1,1.7c-0.8-0.6-1.7-1-2.6-1.4c-1.4-0.7-3-1.4-4.6-1.8c-3.1-0.8-6.4-1.3-9.6-1
		c-3.2,0.2-6.2,1-9,2.6c-0.1,0-0.1,0.1-0.2,0.1c-0.5,0-1,0.1-1.5,0.5c-0.2,0.1-0.3,0.3-0.5,0.4c-0.4-2.2-1-4.4-1.4-6.6
		C55.6,18.1,55.6,16.7,56.4,15.8 M68.6,74.2c0.3-0.6,0.7-1.1,1.1-1.6c0.7-0.9,1.4-1.7,2.1-2.6c-1.3,1.7-2.5,3.4-3.6,5.1
		C68.3,74.7,68.4,74.4,68.6,74.2 M79.1,71.1c0,0.1-0.1,0.2-0.1,0.2c-2.4,2.8-4.7,5.7-7.3,8.3c-1.5,1.5-3,2.9-4.6,4.3
		c-3.1,2.7-7.5,1.1-10.8-0.4c-0.4-0.2-2.2-1-4.3-1.8c-0.1-0.1-0.2-0.2-0.3-0.3c-1.8-1.2-3.8-1.8-5.9-2c0.7-2,1.5-3.9,2.2-5.9
		c0.7,0.3,1.4,0.5,2.2,0.6c0.3,0,0.6,0.1,0.9,0.1c-0.1,0.3-0.2,0.6-0.3,0.9c-0.1,0.3-0.2,0.6-0.3,0.9c-0.1,0.3-0.3,0.8-0.1,1.1
		c0.1,0.2,0.4,0.3,0.6,0.2c0.4-0.2,0.4-0.7,0.5-1c0.1-0.3,0.2-0.6,0.2-0.9c0.1-0.3,0.2-0.6,0.2-1c1.1,0.2,2.3,0.4,3.4,0.6
		c0,0,0,0,0,0c-0.4,1-0.8,2.1-1.1,3.2c-0.1,0.4,0.1,0.8,0.5,0.9c0.4,0.1,0.8-0.1,0.9-0.5c0.2-0.6,0.4-1.3,0.5-1.9
		c0.1-0.3,0.2-0.6,0.2-0.9l0.1-0.5c1.2,0.2,2.3,0.5,3.5,0.8c-0.1,0.4-0.2,0.7-0.3,1.1c-0.2,0.8-0.3,1.5-0.5,2.3
		c-0.1,0.4,0.1,0.9,0.6,1c0.4,0.1,0.9-0.1,1-0.6c0.2-0.8,0.3-1.5,0.4-2.3c0.1-0.4,0.1-0.8,0.2-1.1c0,0,0,0,0,0
		c0.2,0,0.4,0.1,0.6,0.1c1,0.2,1.9,0.5,2.9,0.8c-0.1,0.5-0.2,1-0.3,1.6c-0.2,0.9-0.5,1.9-0.2,2.8c0.2,0.8,1.3,0.9,1.7,0.2
		c0.5-0.8,0.5-1.9,0.7-2.8c0.1-0.5,0.1-0.9,0.2-1.4c0.1,0,0.3-0.1,0.4-0.2c0.3-0.1,0.4-0.4,0.4-0.7c2.2-3.3,4.5-6.4,7-9.5
		c0.1-0.1,0.2-0.1,0.3-0.2c0,0,0,0,0,0c0.1,0,0.2,0,0.3,0.1c0.6,0.2,1.3,0.4,1.9,0.6c0.8,0.2,1.7,0.5,2.6,0.6
		C79.8,69.2,79.4,70.1,79.1,71.1 M99,60.4c-1.9,1-3.7,2.4-5.4,3.8c-0.6,0.2-1.3,0.4-2,0.5c-3.1-0.4-6.2-0.7-9.2-1.1
		c-1.3-0.2-2.5-0.4-3.8-0.6c0.1-0.1,0.2-0.2,0.3-0.3c0.4-0.4-0.3-1-0.6-0.6c-0.2,0.3-0.4,0.5-0.6,0.8c-0.4-0.1-0.8-0.1-1.2-0.2
		c-0.3-0.3-0.8-0.4-1.1-0.2c-0.2,0-0.4-0.1-0.6-0.1c-1.7-0.4-3.5-0.9-5.2-1.3c-0.2,0-0.4,0-0.6,0c-0.7,1-1.4,1.9-2.2,2.8
		c-0.1,0.1-0.2,0.2-0.3,0.2c-0.1,0.2-0.2,0.4-0.3,0.6c-0.9-0.3-2-0.3-2.9-0.4c-0.4,0-0.7,0-1.1-0.1c0.1-0.1,0.1-0.2,0.2-0.3
		c0.1-0.3,0.3-0.5,0.4-0.8c0.2-0.3,0.3-0.6,0.5-1c0.1-0.4-0.1-0.8-0.5-0.9c-0.4-0.2-0.8,0-1,0.3c-0.2,0.2-0.3,0.5-0.4,0.8
		c-0.1,0.3-0.3,0.6-0.4,0.8c-0.1,0.3-0.3,0.5-0.4,0.8c0,0.1-0.1,0.1-0.1,0.2c-0.9-0.1-1.8-0.1-2.6-0.2c-0.1,0-0.2,0-0.3,0
		c-0.2,0-0.4-0.1-0.6-0.1c0.4-1,0.9-2.1,1.3-3.1c0.1-0.3-0.1-0.7-0.4-0.7c-0.4-0.1-0.6,0.1-0.7,0.4c-0.4,1.1-0.9,2.2-1.3,3.3
		c-0.9-0.1-1.8-0.2-2.7-0.3c0.1-0.2,0.2-0.4,0.3-0.6c0.4-0.7,0.8-1.4,1.1-2.2c0.1-0.3-0.2-0.8-0.5-0.9c-0.4-0.1-0.7,0.1-0.9,0.5
		c-0.3,0.7-0.5,1.4-0.8,2.1c-0.1,0.3-0.3,0.6-0.4,0.9c-0.8-0.1-1.6-0.2-2.3-0.3c-0.2,0-0.4-0.1-0.6-0.3c0.6-1.5,1.2-3,1.8-4.6
		c0.6-1.6,1.2-3.3,1.6-4.9c0.2-0.7,0.1-1.4-0.1-2.1c0-0.1,0-0.2,0-0.3c0.1-0.1,0.2-0.2,0.3-0.4c0.3-0.8,0.7-1.5,1.1-2.2
		c0.3-0.7,0.7-1.4,1.1-2.1c0.4-0.6,0.8-1.3,1.2-1.9c-0.2,0.7-0.4,1.3-0.6,1.9c-0.3,0.9-0.6,1.8-0.8,2.7c-0.1,0.5-0.2,1-0.2,1.5
		c0,0.5,0.1,0.9,0.4,1.4c0.1,0.2,0.4,0.3,0.6,0.2c0.4-0.3,0.8-0.5,1-1c0.3-0.5,0.5-1,0.7-1.5c0.3-1,0.6-2.1,0.9-3.1
		c0.2-0.9,0.5-1.8,0.5-2.7c0-0.5,0-0.9-0.1-1.4c-0.1-0.5-0.4-0.9-0.8-1.3c-0.4-0.4-1.2-0.4-1.6,0c-1.2,1.3-2.3,2.8-3.1,4.3
		c-0.4,0.8-0.8,1.6-1.1,2.4c-0.1,0.1-0.1,0.3-0.1,0.4c-0.3-1-0.8-2-1.3-3c0,0,0,0,0,0c0.7-1.6,1.2-3.3,1.9-4.9
		c0.7-1.7,1.5-3.4,2.5-5c0.9-1.5,1.9-3,3-4.5c0.5-0.7,1.1-1.4,1.7-2.1c1.1-0.9,2.2-1.6,3.6-2c0.1,0,0.1,0,0.2-0.1
		c0.4-0.1,0.8-0.3,1.2-0.4c0,0,0.1,0,0.1,0c0.2-0.1,0.5-0.1,0.7-0.2c3-0.7,6-0.8,9.2-0.4c2,0.3,3.9,0.9,5.7,1.6
		c0.9,0.4,1.8,0.8,2.6,1.3c0.5,0.3,0.9,0.6,1.4,0.9c1.5,1.1,2.9,2.2,4.1,3.5c1.3,2.5,2.5,5,3.8,7.5c2,4,4,8,5.8,12.1
		c-0.1,0.1-0.1,0.3,0,0.5C99.1,54.8,99.6,57.7,99,60.4"/>
	<path class="st3" d="M79.6,64.4c-0.1,0-0.1,0-0.2,0L79.6,64.4C79.6,64.4,79.6,64.4,79.6,64.4"/>
	<path class="st3" d="M76.9,45.4c0.2-0.2,0.5-0.4,0.7-0.4c-0.2,0,0.1,0.1,0,0c0.2,0.1,0,0,0.2,0.2c0.2,0.2,0.3,0.3,0.3,0.6
		c0.1,0.9-0.2,1.8-0.4,2.6c-0.2,1-0.5,2.1-0.9,3.1c-0.3,1-1,2.1-1,3.2c-0.1,1.3,1.8,2.1,2.7,1.1c0.7-0.8,1-2,1.4-3.1
		c0.3-0.9,0.6-1.8,0.8-2.7c0.5-1.9,1.1-4.3-0.1-6.1c-0.5-0.8-1.3-1.4-2.2-1.6c-1-0.2-2,0.2-2.8,0.8c-1.3,1.1-2.4,2.5-3.4,4
		c-1.1,1.6-2,3.5-2.5,5.4c-0.2,0.8,0.9,1.3,1.4,0.6c0.9-1.6,1.8-3.2,2.9-4.7c0.5-0.7,1.1-1.4,1.7-2C76.1,46.1,76.5,45.7,76.9,45.4"
		/>
	<path class="st3" d="M68.6,63.7c1.6,0.7,3.6,0.8,5.2,1.1c1.9,0.3,3.8,0.6,5.6,0.9c1.9,0.3,3.8,0.6,5.6,0.9c1.6,0.3,3.3,0.7,5,0.5
		c5.4-0.4,7.6-6.6,12.3-8.2c1.7-0.6,1-3.3-0.7-2.7c-2.3,0.8-4.1,2.4-5.8,4.1c-1.7,1.7-3.4,3.5-5.8,4.1c-1.7,0.4-3.3,0.2-5.1,0
		c-1.8-0.2-3.6-0.5-5.4-0.7c-1.8-0.2-3.6-0.5-5.4-0.7c-1.7-0.2-3.6-0.7-5.3-0.4C68.2,62.6,68.1,63.4,68.6,63.7"/>
	<path class="st3" d="M66.8,77.8c0.6-0.3,1-0.9,1.4-1.3c0.4-0.5,0.8-0.9,1.2-1.4c0.8-1,1.6-2.1,2.3-3.1c1.5-2.1,2.7-4.3,3.9-6.6
		c0.5-1.1-1.1-2-1.6-0.9c-1.1,2.2-2.3,4.4-3.7,6.5c-0.7,1-1.4,2-2.2,3c-0.4,0.5-0.8,1-1.1,1.4c-0.4,0.5-0.9,1-1.2,1.5
		C65.5,77.5,66.1,78.2,66.8,77.8"/>
	<path class="st3" d="M44.5,80.5c3.4,1.5,6.8,3,10.2,4.4c1.7,0.7,3.3,1.4,5,2.2c1.7,0.7,3.7,1.3,5.1,2.4c0.4,0.3,1.1,0.2,1.4-0.2
		c3.3-3.7,6.2-7.6,9.5-11.3c3.3-3.7,6.7-7.2,10.2-10.7c1.1-1.1-0.6-2.7-1.7-1.7c-3.6,3.5-7.1,7.1-10.4,10.8
		c-3.3,3.7-6.7,7.4-9.4,11.5c0.4-0.2,0.9-0.3,1.3-0.5c-1.7-0.3-3.4-1.3-5-2c-1.7-0.7-3.5-1.5-5.2-2.2c-3.4-1.4-6.8-2.9-10.2-4.3
		C44.3,78.5,43.6,80.1,44.5,80.5"/>
	<path class="st4" d="M76.6,12.6c0,0,4.4-0.8,14,17.2c9.6,18,11.2,22.7,11.2,22.7v4.8c0,0,11.4-9.5,9.9-16.4
		c-1.4-6.9-4.2-13.3-7.8-17.5c-3.7-4.2-12.6-9.7-18.7-10.9C79.1,11.3,76.6,12.6,76.6,12.6"/>
	<path class="st1" d="M96.8,36.3c1.3-1.5,3.8-2.5,5.7-2c2,0.5,3.1,2.4,2.9,4.4c-0.1,1-0.6,2-1.4,2.7c-0.4,0.3-1.8,1.1-2.2,0.3
		c-0.1-0.3,0.1-0.7,0.3-0.9c0.4-0.4,0.9-0.4,1.4-0.3c1.1,0.3,2,1.3,2.5,2.3c0.5,1.2,0.6,2.5,0.3,3.7c-0.3,1.3-1.1,2.2-1.9,3.3
		c-0.3,0.3,0.2,0.8,0.5,0.7c3.3-1,4.1-5.7,3.1-8.5c-0.7-1.8-2.1-3.4-4-3.9c-2-0.5-4,0.5-4.6,2.5c-0.6,2,1.1,3.8,3.1,3.8
		c1.9,0,3.5-1.2,4.4-2.7c1.7-2.9,1.2-7.1-1.9-8.9c-1.6-0.9-3.7-1-5.4-0.2c-0.8,0.4-1.5,0.8-2.1,1.6C97,34.9,96.8,35.4,96.8,36.3
		C96.7,36.3,96.7,36.4,96.8,36.3"/>
	<path class="st3" d="M44.6,79.1l4.2,0.9l6.3,2.5c0,0,5.4,2.4,6.4,2.3c1-0.1,3.1,0,3.1,0l3.6-1.1c0,0-1.5,0.7,0-0.8
		c1.5-1.4,1.8-1.7,1.8-1.7l-1.8,3.2l-1.8,1.7L65,87.1l-14.9-4.4L44.6,79.1z"/>
	<polygon class="st3" points="65,64.8 68.2,59.7 81.8,62.3 90.3,64.8 70.4,63.7 	"/>
	<path class="st1" d="M45.9,79.1c0,0,16.2,7.2,18.3,7.1c3.4-2.3,16.6-17.2,16.6-17.2l0.4-0.6l-5.8-2.1h-0.7l-5.8,8.9l-1.3,1.5
		l-0.4,0.7l-0.8,4.2l-0.9,0.2l-0.4-4.7l-3.5-0.9l-1,3.4h-0.6L45.9,79.1z"/>
	<polygon class="st3" points="63.6,91.2 42.6,80.7 43.5,78.6 65,87.1 69.9,83.4 72.1,84.9 	"/>
</g>
</svg>
